<svg xmlns="http://www.w3.org/2000/svg" xmlns:xlink="http://www.w3.org/1999/xlink" viewBox="0 0 950 950"><defs><style>.cls-1{fill:url(#Degradado_sin_nombre_3);}.cls-2{fill:#cc1517;}.cls-3{fill:url(#Degradado_sin_nombre_34);}.cls-4{fill:#332525;}</style><linearGradient id="Degradado_sin_nombre_3" x1="142.31" y1="141.09" x2="797.52" y2="796.31" gradientUnits="userSpaceOnUse"><stop offset="0.18" stop-color="#f33"/><stop offset="0.18" stop-color="#cc1517"/></linearGradient><linearGradient id="Degradado_sin_nombre_34" x1="374.31" y1="340.16" x2="356.54" y2="322.38" gradientUnits="userSpaceOnUse"><stop offset="0" stop-color="#f6f6f6"/><stop offset="0" stop-color="#fff"/></linearGradient></defs><g id="Capa_2" data-name="Capa 2"><g id="Capa_1-2" data-name="Capa 1"><path class="cls-1" d="M472.57,8.05C216.7,8.05,9.27,215.48,9.27,471.36S216.7,934.67,472.57,934.67,935.88,727.24,935.88,471.36,728.45,8.05,472.57,8.05Zm-93.74,67.6a166.66,166.66,0,0,1,63.48-35.42c11.05-3.27,15.43.44,15.31,11.85-.31,28.35-.1,56.7-.1,85q0,40.86,0,81.71c0,7.72,0,14.12-11.3,13.59-47.2-2.25-94.16-6.22-140.76-14.42-13.36-2.35-16.92-6.25-10.81-19.55C315.73,152.62,340.35,109.5,378.83,75.65ZM165.05,163.32c43.51-41.48,91.88-75.42,148.52-96.55,9.71-3.62,19-9,33-10.06C306.46,99.14,276.94,144.52,257.26,196c-3.59,9.39-9.57,9.44-17.14,7-23.82-7.6-47.57-15.41-71.43-22.87C157.05,176.52,156.11,171.85,165.05,163.32ZM38.24,435.78C43,375,60.59,318.1,89.6,264.75c9.26-17,20.57-33,31-49.4,5.5-8.69,12.12-11.5,22.46-6.9,26.92,12,54.85,21.41,83.18,29.44,10.7,3,14.52,7.31,11.13,18.78-18.06,61-28.51,123.31-29.85,187-.22,10.33-4.84,13.43-14.39,13.3-23.89-.32-47.79-.1-71.68-.1-21.12,0-42.29-1-63.33.28C41.29,458.12,37,451.46,38.24,435.78ZM142.06,740.37c-8.48,3.87-14,2.21-19.68-5.52-48-65.6-76.52-138.61-83.68-219.66-2-22.37-.64-23.11,22.41-23.16,21.1,0,42.19,0,63.29,0v.18c22.77,0,45.54.3,68.29-.13,10.68-.2,14.6,4,14.85,14.67A697,697,0,0,0,236.7,690.31c3.52,11.84,2,18-11.26,21.45C197,719.16,168.9,728.12,142.06,740.37Zm90.52,100.3c-24.38-15.7-46-35-67.23-54.57-8.69-8-10.81-13.2,2.9-18,23.59-8.3,47-17,71.28-23.21,9-2.33,14.47-1.41,18.12,8.21a403,403,0,0,0,85.42,136c.58.6.36,2,.76,4.52C303.51,881.44,267.14,862.93,232.58,840.67ZM441.26,909c-39.78-11.43-68.82-37.64-94.21-68.5-22.76-27.67-39-59.32-53.43-92-4.95-11.15-1.08-14.44,9.69-16.46,47.07-8.84,94.58-12.79,142.34-15,10.79-.49,12,4.7,11.93,13-.13,28.34-.05,56.69-.05,85,0,27.23-.3,54.47.12,81.69C457.85,909.42,452.88,912.37,441.26,909Zm16.42-245.76c.08,12-4.35,17.35-16.5,17.31-51.31-.18-101.92,6.92-152.28,15.95-9.74,1.75-14.21-1.86-16.79-11a776.18,776.18,0,0,1-28.58-182.32c-.42-11.6,6.58-10.95,13.94-11q46.69-.09,93.4,0c30,0,60.05.35,90.06-.18,11.93-.22,16.94,3.52,16.82,16.17C457.25,559.87,457.34,611.57,457.68,663.27ZM441.53,457c-30.56-.48-61.13-.15-91.7-.15v.08q-41.68,0-83.37,0c-22.9,0-22.49-.06-21.85-22.38,1.63-57,11.31-112.59,25.8-167.6,4-15,10-18.87,25.72-15.62a802,802,0,0,0,145.42,16.93c12.42.28,16.27,4.88,16.17,16.92q-.68,77.53,0,155.06C457.88,452.4,453.84,457.16,441.53,457ZM807,209.43c8.76-3.64,15.17-3.75,21.42,5C875.88,281,905.12,354.25,912,436.15c1.32,15.67-3,22.39-19.81,21.48-21.6-1.17-43.32-.28-65-.28-22.78,0-45.57-.38-68.34.12-11.06.24-16-3.25-16.15-15.14-.86-63.17-12.17-124.82-29.39-185.39-3.52-12.35,0-16.64,11.64-19.65A616.71,616.71,0,0,0,807,209.43Zm-49.06-70.15c10.16,8.62,19.71,18,29.63,26.87,6.46,5.8,5.8,9.76-2.46,12.95a789.09,789.09,0,0,1-77.63,25.14c-7.25,2-11.55.35-14.23-6.85-19.42-52.18-49.05-98-86.45-139.79A408.47,408.47,0,0,1,757.89,139.28ZM510.4,40.83c39.61,12,68.44,38.32,93.7,69.28,22.29,27.31,38.22,58.48,52.49,90.59,4.83,10.85,1.74,14.55-9.36,16.64-47.07,8.86-94.57,12.85-142.34,15-10.53.47-12.23-4.18-12.18-12.69.16-28.35.06-56.69.06-85,0-26.67.41-53.36-.18-80C492.28,40.78,496.71,36.69,510.4,40.83ZM492.62,284.39c-.08-11.18,3.48-15.83,15.22-16.05,51.14-1,101.78-7.13,152-16.67,9.77-1.85,15.14-.58,18.28,10.2,17.45,60,25.4,121.5,29.17,183.68.64,10.51-5.38,11.82-13.53,11.8-31.64-.09-63.28,0-94.92,0-30,0-60-.37-89.93.21-12.38.25-16.45-4.44-16.34-16.59Q493.25,362.66,492.62,284.39Zm-.15,225.1c-.19-13.82,5.56-17.13,17.78-17,30,.43,60,.14,90,.14q45.86,0,91.7,0c8.29,0,15.06,0,14.59,12.22-2.32,60.78-10.85,120.48-27.24,179.13-3.72,13.32-8.77,17.5-23.35,14.51-48.46-9.94-97.54-16.09-147.07-17.21-12.25-.28-16.46-4.54-16.36-16.75C493,612.87,493.17,561.17,492.47,509.49ZM571,874.31A167.94,167.94,0,0,1,509,909c-11.56,3.55-16.56.38-16.37-12.19.42-27.76.14-55.54.14-83.31s.06-55.54-.06-83.31c0-8.15.92-13.61,11.79-13.08,47.17,2.28,94.11,6,140.66,14.44,12.66,2.3,16.13,6.38,10.67,18.65C635.09,796.79,610,840.21,571,874.31ZM787.35,784c-51.54,50.33-110.92,87.56-180.63,107.9,37.6-41.5,66.78-87.53,86.75-139.33,2.66-6.9,6.59-9.25,14-7.13,26.15,7.42,52.21,15,77.45,25.2C793.09,773.87,793.4,778,787.35,784Zm41.93-49c-6.35,8.82-13,10-22.83,5.75a587.77,587.77,0,0,0-83.29-29.21c-10.48-2.81-13.39-7.27-10.34-17.7,18-61.61,28.69-124.45,30.06-188.72.2-9.45,4.58-12.53,13.44-12.5,47.25.18,94.5.28,141.75,0,19.29-.12,12.59,13.78,14.09,24.08Q900.27,636.67,829.28,735Z"/><path class="cls-2" d="M475,950A475.12,475.12,0,0,1,290.11,37.33,475.12,475.12,0,0,1,659.89,912.67,472,472,0,0,1,475,950Zm0-926.61C226,23.39,23.39,226,23.39,475S226,926.61,475,926.61,926.61,724,926.61,475,724,23.39,475,23.39Z"/><path d="M516.87,763.51c-41.26,0-81.51-6.6-117.61-20.18-56-19.8-102.22-56.13-133.61-105.08-29-45.28-44.27-98.84-44.07-154.89s15.78-109.23,45-154.13c31.67-48.58,78.08-84.5,134.22-103.87,54.23-19.61,117-25.34,176.68-16.12,64.76,10,119.74,36.26,159,75.94a34.44,34.44,0,0,1,10.06,25.08,33.64,33.64,0,0,1-11.18,24.4l-60.11,54.4a33.77,33.77,0,0,1-45.74-.05,153.26,153.26,0,0,0-39.77-27c-37.63-17.21-85.08-17.57-123.84-.93-22.24,9.55-51.48,28.9-64.49,66.83l-.12.34c-17.84,47.31-12,100.6,15.36,139.06,24.72,34.8,63,53.34,108,52.33,1.89-.13,4-.25,6.38-.38,16.54-.94,60.5-3.44,60.36-19.34V495.7a34.08,34.08,0,0,1,34.05-34.05h84.59a34.09,34.09,0,0,1,34.06,34.05V674.52a33.9,33.9,0,0,1-15.5,28.58C666.69,742.66,590.2,763.51,516.87,763.51Z"/><path class="cls-3" d="M583.06,581.08a21.93,21.93,0,0,1-14.55,20.8l-.15,0a192.15,192.15,0,0,1-63.19,10.66q-32.34,0-59.14-10.66a131.05,131.05,0,0,1-45.92-30.12,136.66,136.66,0,0,1-29.76-46.66Q359.69,498,359.7,465.64q0-33.08,10.65-60.25a136.94,136.94,0,0,1,29.76-46.66A126.85,126.85,0,0,1,446.4,329q27.17-10.28,60.24-10.28,37.49,0,68,14a164.2,164.2,0,0,1,42.82,29,22.26,22.26,0,0,0,30,0l60.12-54.39a22.45,22.45,0,0,0,.64-32.59q-33.09-32.9-78.81-52.24Q572,198.19,500,198.19q-63.19,0-115.35,19.47t-90.74,55.11a248.53,248.53,0,0,0-59.89,84.86q-21.31,49.23-21.3,108t21.3,108a250.6,250.6,0,0,0,59.52,84.87q38.19,35.64,89.64,55.11t113.15,19.47q55.83,0,113.52-16.9,51.23-15,92.33-41.63a22.33,22.33,0,0,0,10.16-18.77V477A22.37,22.37,0,0,0,690,454.61H605.42A22.37,22.37,0,0,0,583.06,477Z"/><path class="cls-4" d="M496.36,744.78c-42.36,0-81.82-6.81-117.29-20.23s-67-32.8-93.48-57.49a263.64,263.64,0,0,1-62.27-88.77c-14.77-34.11-22.27-72-22.27-112.65s7.5-78.53,22.27-112.66A261.3,261.3,0,0,1,286,264.18c26.72-24.69,58.55-44,94.59-57.48S456.72,186.5,500,186.5c49.36,0,94.4,8.46,133.87,25.17,31.72,13.42,59.48,31.83,82.51,54.72a34.5,34.5,0,0,1,10.13,25.14,33.67,33.67,0,0,1-11.18,24.41l-60.12,54.39a33.74,33.74,0,0,1-45.73-.05,153.21,153.21,0,0,0-39.77-27c-18.71-8.56-39.94-12.9-63.1-12.9-20.52,0-39.39,3.21-56.11,9.53a115.9,115.9,0,0,0-42.08,27,126,126,0,0,0-27.21,42.73c-6.54,16.67-9.85,35.51-9.85,56,0,20,3.31,38.59,9.84,55.24a126,126,0,0,0,27.22,42.73,120.11,120.11,0,0,0,41.89,27.45c16.41,6.53,34.86,9.83,54.83,9.83a181.38,181.38,0,0,0,59.38-10l.11,0a10.2,10.2,0,0,0,6.7-9.76V477a34.1,34.1,0,0,1,34.06-34.06H690A34.1,34.1,0,0,1,724.07,477V655.79a33.94,33.94,0,0,1-15.5,28.59c-28.22,18.27-60.32,32.75-95.41,43C573.8,738.93,534.5,744.78,496.36,744.78ZM500,209.88c-40.51,0-77.95,6.31-111.27,18.74s-62.41,30.12-86.89,52.74a237.91,237.91,0,0,0-57.08,80.91c-13.51,31.18-20.35,66-20.35,103.37s6.84,72.19,20.34,103.36a240.34,240.34,0,0,0,56.76,81c24.23,22.61,53.1,40.34,85.8,52.72s69.5,18.71,109,18.71c35.92,0,73-5.53,110.23-16.43,32.91-9.64,62.95-23.17,89.27-40.22a10.59,10.59,0,0,0,4.82-9V477A10.68,10.68,0,0,0,690,466.31H605.42A10.68,10.68,0,0,0,594.75,477v104.1a33.59,33.59,0,0,1-22.42,31.85l-.11.05a205.13,205.13,0,0,1-67.05,11.3c-22.94,0-44.3-3.86-63.46-11.48A143.28,143.28,0,0,1,391.76,580a148.91,148.91,0,0,1-32.3-50.58C351.86,510,348,488.57,348,465.64c0-23.42,3.86-45.12,11.46-64.52a149.3,149.3,0,0,1,32.3-50.58A138.94,138.94,0,0,1,442.25,318c19.37-7.33,41-11.05,64.39-11.05,26.54,0,51,5.06,72.83,15a176.9,176.9,0,0,1,45.89,31.07,10.6,10.6,0,0,0,14.19-.09l60.12-54.39a10.52,10.52,0,0,0,3.49-7.62,10.82,10.82,0,0,0-3.24-8c-20.9-20.78-46.18-37.53-75.13-49.77C588.21,217.73,546.24,209.88,500,209.88Z"/><path d="M883.53,857c-.12,6.25-3.07,13.22-9,18.83a28.52,28.52,0,1,1-18.19-49.34C872.56,827.3,883.69,840.82,883.53,857Zm-3.66-2A24.87,24.87,0,1,0,855,879.89,24.87,24.87,0,0,0,879.87,855Z"/><path d="M863,857.89c.19-.71.38-1.42.56-2.13l2.33-8.9c.12-.47.13-.48.63-.48h4.32c.4,0,.42,0,.42.42,0,5.48,0,11,0,16.42,0,.29-.09.4-.39.4-.82,0-1.65,0-2.47,0-.42,0-.42,0-.43-.44V850.53h-.05c-.15.61-.31,1.21-.46,1.81-.91,3.63-1.83,7.26-2.73,10.9a.45.45,0,0,1-.51.39c-.87,0-1.73,0-2.6,0a.4.4,0,0,1-.46-.37c-.77-3.1-1.56-6.2-2.34-9.3-.27-1.1-.55-2.2-.82-3.29,0,0,0-.11-.09-.14v12.56c0,.53,0,.53-.53.53-.8,0-1.59,0-2.38,0-.27,0-.38-.08-.38-.37V846.74c0-.27.09-.36.36-.36h4.53c.32,0,.4.16.46.41q1.44,5.44,2.89,10.89l.06.2Z"/><path d="M847.4,856.49v6.67c0,.45,0,.45-.44.45h-2.59c-.5,0-.5,0-.5-.49V849.94c0-.59,0-.59-.59-.59h-4.07c-.4,0-.42,0-.42-.42,0-.73,0-1.46,0-2.19,0-.26.09-.36.36-.36h13c.29,0,.37.1.37.38q0,1.11,0,2.22c0,.29-.1.38-.38.37h-4.29c-.41,0-.41,0-.41.42Z"/></g></g></svg>