<svg xmlns="http://www.w3.org/2000/svg" xmlns:xlink="http://www.w3.org/1999/xlink" viewBox="0 0 650 713.36"><defs><style>.cls-1{fill:#fff;}.cls-2{fill:#332525;}.cls-3{fill:url(#Degradado_sin_nombre_34);}</style><linearGradient id="Degradado_sin_nombre_34" x1="283.52" y1="140.13" x2="276.2" y2="132.8" gradientUnits="userSpaceOnUse"><stop offset="0" stop-color="#f6f6f6"/><stop offset="0" stop-color="#fff"/></linearGradient></defs><g id="Capa_2" data-name="Capa 2"><g id="Capa_1-2" data-name="Capa 1"><path class="cls-1" d="M88.49,524.31a5.22,5.22,0,0,1-3.47,5l0,0a46.12,46.12,0,0,1-15.1,2.54,38.08,38.08,0,0,1-14.13-2.54,31.48,31.48,0,0,1-11-7.2A32.87,32.87,0,0,1,37.66,511a38.58,38.58,0,0,1-2.54-14.22,39.09,39.09,0,0,1,2.54-14.4,32.87,32.87,0,0,1,7.11-11.15,30.32,30.32,0,0,1,11.07-7.11,40.31,40.31,0,0,1,14.39-2.46,38.59,38.59,0,0,1,16.24,3.33,39.53,39.53,0,0,1,10.24,6.94,5.31,5.31,0,0,0,7.16,0l14.37-13a5.37,5.37,0,0,0,.15-7.79,58.9,58.9,0,0,0-18.84-12.48q-13.69-5.81-30.9-5.8a78.28,78.28,0,0,0-27.56,4.66A65.18,65.18,0,0,0,19.4,450.63,59.59,59.59,0,0,0,5.09,470.91a68,68,0,0,0,0,51.63,60.18,60.18,0,0,0,14.22,20.28A64.66,64.66,0,0,0,40.73,556a75.88,75.88,0,0,0,27,4.66,96.25,96.25,0,0,0,27.13-4,83.45,83.45,0,0,0,22.07-10,5.32,5.32,0,0,0,2.43-4.48V499.43a5.35,5.35,0,0,0-5.35-5.34H93.84a5.35,5.35,0,0,0-5.35,5.34Z"/><path class="cls-1" d="M237.84,462.84H208.49a2,2,0,0,0-2,2V509a30.82,30.82,0,0,1-2.28,12.73,15.17,15.17,0,0,1-6.41,7.28,18.29,18.29,0,0,1-9,2.28q-7.56,0-11.68-4.82T173,510.6V464.85a2,2,0,0,0-2-2H141.59a2,2,0,0,0-2,2V516q0,15.11,5.18,24.84a32.36,32.36,0,0,0,14.39,14.31c6.15,3,27.24,4.3,35,4.3l43.76-1.25a2,2,0,0,0,2-2V464.85A2,2,0,0,0,237.84,462.84Z"/><rect class="cls-1" x="261.44" y="462.84" width="33.36" height="95.34" rx="2.01"/><path class="cls-2" d="M415.52,427.9H386.17a2,2,0,0,0-2,2v41.26a29.88,29.88,0,0,0-5.62-4.55q-8.61-5.36-20.72-5.35a47,47,0,0,0-23.53,6.05,44.24,44.24,0,0,0-16.94,17q-6.24,11-6.23,26.25,0,15.09,6.23,26.07a44.21,44.21,0,0,0,16.94,17,47,47,0,0,0,23.53,6.06c6.36,0,20.05-.26,29-1.84a1.94,1.94,0,0,0,1,.26h27.76a2,2,0,0,0,2-2V429.9A2,2,0,0,0,415.52,427.9Zm-33.46,94.9a18.54,18.54,0,0,1-7.11,7.81,19.52,19.52,0,0,1-10.1,2.64,19.85,19.85,0,0,1-10.27-2.64,18.54,18.54,0,0,1-7.11-7.81,26.53,26.53,0,0,1-2.63-12.2q0-7.56,2.63-12.47a18.93,18.93,0,0,1,7.11-7.55A19.85,19.85,0,0,1,364.85,488a19.51,19.51,0,0,1,10.1,2.63,18.93,18.93,0,0,1,7.11,7.55q2.64,4.92,2.63,12.47A26.53,26.53,0,0,1,382.06,522.8Z"/><path class="cls-2" d="M529.06,484a46.48,46.48,0,0,0-18.44-16.86,55.28,55.28,0,0,0-25.54-5.88,56.33,56.33,0,0,0-27,6.32,47.4,47.4,0,0,0-18.61,17.47,48.26,48.26,0,0,0-6.76,25.55,46.65,46.65,0,0,0,6.94,25.19,48,48,0,0,0,19.49,17.56q12.54,6.4,29.58,6.41,13.51,0,23.53-4a44.29,44.29,0,0,0,15.34-9.91,2,2,0,0,0,0-2.8l-14.79-15.69a2,2,0,0,0-2.69-.2,35.11,35.11,0,0,1-8.42,5.07,31.93,31.93,0,0,1-12.12,2,28.79,28.79,0,0,1-13-2.72,19.19,19.19,0,0,1-8.34-7.82,21,21,0,0,1-1.95-4.74h67.27a2,2,0,0,0,2-1.83c.06-.76.12-1.55.19-2.38.11-1.52.17-2.87.17-4Q536,495,529.06,484Zm-54.34,3.77a21,21,0,0,1,10.71-2.63,19.75,19.75,0,0,1,10.36,2.63,18.66,18.66,0,0,1,6.93,7.46,20.46,20.46,0,0,1,2.06,6.24H465.83a22.76,22.76,0,0,1,1.95-6.24A17.1,17.1,0,0,1,474.72,487.77Z"/><polygon class="cls-2" points="618.39 462.84 594.38 521.28 571.51 462.84 537.28 462.84 576.43 558.18 611.02 558.18 650 462.84 618.39 462.84"/><path class="cls-1" d="M324,3.32c-105.41,0-190.86,85.45-190.86,190.85S218.59,385,324,385s190.86-85.45,190.86-190.86S429.41,3.32,324,3.32ZM285.38,31.16a68.72,68.72,0,0,1,26.16-14.59c4.54-1.35,6.35.18,6.3,4.89-.13,11.67,0,23.35,0,35q0,16.83,0,33.65c0,3.19,0,5.82-4.65,5.6a458.55,458.55,0,0,1-58-5.94c-5.5-1-7-2.57-4.45-8C259.39,62.87,269.53,45.11,285.38,31.16ZM197.32,67.28c17.92-17.09,37.85-31.07,61.18-39.77,4-1.5,7.81-3.73,13.6-4.15-16.53,17.48-28.69,36.17-36.8,57.38-1.48,3.87-3.94,3.89-7.06,2.89-9.81-3.13-19.59-6.35-29.42-9.42C194,72.72,193.63,70.79,197.32,67.28ZM145.08,179.52a174.74,174.74,0,0,1,21.16-70.46c3.81-7,8.47-13.58,12.75-20.35,2.27-3.58,5-4.74,9.25-2.84A255,255,0,0,0,222.51,98c4.41,1.25,6,3,4.58,7.73a292.42,292.42,0,0,0-12.3,77c-.09,4.26-2,5.54-5.92,5.48-9.84-.13-19.69,0-29.53,0-8.7,0-17.42-.39-26.09.12C146.33,188.72,144.57,186,145.08,179.52ZM187.85,305c-3.5,1.6-5.78.91-8.11-2.27-19.79-27-31.52-57.1-34.47-90.49-.82-9.22-.27-9.52,9.23-9.54q13,0,26.07,0v.08c9.38,0,18.76.13,28.13,0,4.4-.09,6,1.63,6.12,6a287.57,287.57,0,0,0,12,75.62c1.46,4.88.85,7.41-4.64,8.84A207.76,207.76,0,0,0,187.85,305Zm37.29,41.32c-10-6.47-18.93-14.4-27.7-22.48-3.58-3.3-4.45-5.44,1.2-7.42,9.71-3.42,19.36-7,29.36-9.56,3.72-1,6-.59,7.47,3.38a166.1,166.1,0,0,0,35.18,56c.24.24.15.8.31,1.86C254.36,363.1,239.37,355.48,225.14,346.31Zm86,28.16c-16.38-4.71-28.35-15.5-38.81-28.22-9.37-11.4-16.05-24.43-22-37.88-2-4.59-.44-5.95,4-6.78,19.39-3.64,39-5.27,58.64-6.16,4.44-.2,4.93,1.93,4.91,5.34-.05,11.67,0,23.35,0,35,0,11.22-.12,22.44.05,33.66C317.93,374.63,315.89,375.85,311.1,374.47Zm6.77-101.24c0,4.93-1.8,7.15-6.8,7.13-21.14-.07-42,2.85-62.73,6.57-4,.72-5.86-.76-6.92-4.54a319.41,319.41,0,0,1-11.77-75.11c-.18-4.78,2.71-4.51,5.74-4.52q19.25,0,38.48,0c12.36,0,24.73.15,37.1-.07,4.91-.09,7,1.45,6.92,6.66C317.69,230.63,317.72,251.93,317.87,273.23Zm-6.66-85c-12.59-.19-25.18-.06-37.77-.06v0H239.09c-9.43,0-9.26,0-9-9.22.67-23.47,4.66-46.38,10.63-69,1.63-6.19,4.14-7.78,10.59-6.44a330.53,330.53,0,0,0,59.91,7c5.12.11,6.7,2,6.66,7q-.27,31.94,0,63.88C318,186.36,316.28,188.32,311.21,188.24Zm150.54-102c3.6-1.5,6.24-1.54,8.82,2.07,19.57,27.41,31.62,57.59,34.46,91.33.54,6.45-1.25,9.23-8.16,8.85-8.9-.48-17.85-.12-26.78-.12-9.38,0-18.77-.15-28.15,0-4.56.1-6.59-1.34-6.65-6.23-.36-26-5-51.42-12.11-76.37-1.45-5.09,0-6.86,4.8-8.1A253.83,253.83,0,0,0,461.75,86.27ZM441.54,57.38c4.18,3.55,8.11,7.39,12.2,11.06,2.66,2.39,2.39,4-1,5.34a326.54,326.54,0,0,1-32,10.36c-3,.81-4.76.14-5.86-2.82-8-21.5-20.21-40.39-35.61-57.59A168.26,168.26,0,0,1,441.54,57.38Zm-102-40.56c16.32,4.93,28.2,15.79,38.6,28.54,9.18,11.25,15.75,24.09,21.63,37.32,2,4.47.71,6-3.86,6.85-19.39,3.65-39,5.3-58.64,6.18-4.34.19-5-1.72-5-5.23.07-11.67,0-23.35,0-35,0-11,.17-22-.08-33C332.12,16.8,333.94,15.11,339.58,16.82Zm-7.32,100.33c0-4.6,1.43-6.52,6.27-6.61a373.12,373.12,0,0,0,62.61-6.86c4-.77,6.24-.25,7.53,4.2,7.19,24.73,10.46,50.05,12,75.66.26,4.33-2.22,4.87-5.58,4.86-13,0-26.06,0-39.1,0-12.35,0-24.7-.16-37,.09-5.1.1-6.78-1.83-6.74-6.84Q332.52,149.39,332.26,117.15Zm-.06,92.73c-.08-5.69,2.29-7.06,7.32-7,12.36.17,24.73,0,37.09,0q18.88,0,37.78,0c3.41,0,6.2,0,6,5a318.17,318.17,0,0,1-11.22,73.79c-1.53,5.49-3.62,7.21-9.62,6A338.91,338.91,0,0,0,339,280.66c-5-.12-6.78-1.87-6.73-6.9C332.43,252.47,332.49,231.17,332.2,209.88Zm32.34,150.29A69.16,69.16,0,0,1,339,374.46c-4.76,1.47-6.82.16-6.74-5,.17-11.43.05-22.88.05-34.32s0-22.88,0-34.32c0-3.36.38-5.6,4.86-5.39,19.43.95,38.77,2.47,57.94,5.95,5.21.95,6.65,2.63,4.39,7.68C391,328.24,380.6,346.12,364.54,360.17Zm89.13-37.23C432.44,343.68,408,359,379.26,367.39A182.87,182.87,0,0,0,415,310c1.09-2.84,2.71-3.81,5.79-2.94a315.71,315.71,0,0,1,31.9,10.38C456,318.79,456.16,320.51,453.67,322.94Zm17.27-20.18c-2.61,3.64-5.36,4.14-9.4,2.37a242.23,242.23,0,0,0-34.31-12c-4.32-1.16-5.52-3-4.26-7.29a298.26,298.26,0,0,0,12.38-77.74c.09-3.9,1.89-5.17,5.54-5.15,19.46.07,38.93.11,58.39,0,8,0,5.19,5.68,5.81,9.92A182.09,182.09,0,0,1,470.94,302.76Z"/><path class="cls-1" d="M325,391.35a195.73,195.73,0,0,1-76.17-376A195.72,195.72,0,0,1,401.17,376,194.58,194.58,0,0,1,325,391.35ZM325,9.63c-102.58,0-186,83.46-186,186s83.46,186,186,186,186-83.45,186-186S427.58,9.63,325,9.63Z"/><path d="M342.25,314.52c-17,0-33.58-2.71-48.45-8.31a106.9,106.9,0,0,1-55-43.29,119.55,119.55,0,0,1,.4-127.29,106.69,106.69,0,0,1,55.29-42.79c22.34-8.08,48.19-10.44,72.78-6.64,26.68,4.11,49.33,14.93,65.51,31.28a14.15,14.15,0,0,1,4.14,10.33,13.84,13.84,0,0,1-4.6,10.05l-24.76,22.41a13.9,13.9,0,0,1-18.84,0,63.14,63.14,0,0,0-16.39-11.12c-15.5-7.1-35.05-7.24-51-.39-9.16,3.94-21.21,11.91-26.57,27.53l0,.14c-7.35,19.49-4.93,41.44,6.33,57.29,10.18,14.33,26,22,44.48,21.55l2.63-.15c6.81-.39,24.92-1.42,24.86-8V204.2a14,14,0,0,1,14-14h34.85a14.05,14.05,0,0,1,14,14v73.66a14,14,0,0,1-6.39,11.78C404,305.93,372.45,314.52,342.25,314.52Z"/><path class="cls-3" d="M369.51,239.37a9,9,0,0,1-6,8.57l-.06,0a79.1,79.1,0,0,1-26,4.39A65.31,65.31,0,0,1,313.07,248a53.92,53.92,0,0,1-18.92-12.41,56.27,56.27,0,0,1-12.26-19.22,66.48,66.48,0,0,1-4.39-24.51A67.42,67.42,0,0,1,281.89,167a56.37,56.37,0,0,1,12.26-19.22,52.12,52.12,0,0,1,19.07-12.26A69.73,69.73,0,0,1,338,131.28,66.49,66.49,0,0,1,366,137a67.75,67.75,0,0,1,17.65,12A9.16,9.16,0,0,0,396,149l24.76-22.4a9.24,9.24,0,0,0,.27-13.42,101.58,101.58,0,0,0-32.47-21.53q-23.61-10-53.27-10-26,0-47.52,8a112.35,112.35,0,0,0-37.38,22.7,102.54,102.54,0,0,0-24.67,35,110.89,110.89,0,0,0-8.77,44.5,110.84,110.84,0,0,0,8.77,44.49,103.42,103.42,0,0,0,24.52,35A111,111,0,0,0,287.19,294q21.18,8,46.61,8a165.81,165.81,0,0,0,46.76-7,144,144,0,0,0,38-17.15,9.18,9.18,0,0,0,4.18-7.73V196.49a9.21,9.21,0,0,0-9.21-9.21H378.73a9.21,9.21,0,0,0-9.22,9.21Z"/><path class="cls-2" d="M333.8,306.81c-17.45,0-33.71-2.8-48.32-8.33A116.58,116.58,0,0,1,247,274.79a108.59,108.59,0,0,1-25.65-36.57,116.12,116.12,0,0,1-9.17-46.4,116.2,116.2,0,0,1,9.17-46.41,107.66,107.66,0,0,1,25.82-36.58,117.57,117.57,0,0,1,39-23.68c14.81-5.52,31.36-8.32,49.2-8.32,20.33,0,38.89,3.48,55.15,10.37a106.83,106.83,0,0,1,34,22.54,14.21,14.21,0,0,1,4.17,10.36,13.88,13.88,0,0,1-4.6,10.05l-24.77,22.41a13.92,13.92,0,0,1-18.84,0A63.14,63.14,0,0,0,364,141.41a62.17,62.17,0,0,0-26-5.31A65.31,65.31,0,0,0,314.92,140a47.67,47.67,0,0,0-17.33,11.13,52.08,52.08,0,0,0-11.22,17.6,63.08,63.08,0,0,0-4.05,23.07,62.07,62.07,0,0,0,4.05,22.75,52,52,0,0,0,11.21,17.61,49.56,49.56,0,0,0,17.26,11.31,61.08,61.08,0,0,0,22.59,4,74.74,74.74,0,0,0,24.46-4.13l0,0a4.2,4.2,0,0,0,2.77-4V196.49a14,14,0,0,1,14-14h34.84a14,14,0,0,1,14,14v73.66a14,14,0,0,1-6.38,11.78,149.69,149.69,0,0,1-39.3,17.72A171.45,171.45,0,0,1,333.8,306.81Zm1.51-220.35c-16.69,0-32.11,2.6-45.83,7.72a108,108,0,0,0-35.8,21.72,98.26,98.26,0,0,0-23.52,33.34,106.53,106.53,0,0,0-8.38,42.58,106.53,106.53,0,0,0,8.38,42.58,99.22,99.22,0,0,0,23.38,33.35,107,107,0,0,0,35.35,21.72c13.52,5.11,28.63,7.7,44.91,7.7a161.9,161.9,0,0,0,45.41-6.76A139.75,139.75,0,0,0,416,273.84a4.4,4.4,0,0,0,2-3.69V196.49a4.4,4.4,0,0,0-4.4-4.4H378.73a4.4,4.4,0,0,0-4.4,4.4v42.88a13.86,13.86,0,0,1-9.23,13.13h-.05a84.49,84.49,0,0,1-27.62,4.66,70.43,70.43,0,0,1-26.14-4.73,59,59,0,0,1-20.58-13.51,61.48,61.48,0,0,1-13.31-20.84,71.67,71.67,0,0,1-4.72-26.27,72.61,72.61,0,0,1,4.72-26.58,61.57,61.57,0,0,1,13.31-20.84A57.31,57.31,0,0,1,311.51,131,75,75,0,0,1,338,126.46a71.71,71.71,0,0,1,30,6.19,73,73,0,0,1,18.9,12.8,4.37,4.37,0,0,0,5.85,0L417.55,123a4.35,4.35,0,0,0,1.44-3.14,4.48,4.48,0,0,0-1.34-3.3,97.17,97.17,0,0,0-30.94-20.5C371.64,89.69,354.35,86.46,335.31,86.46Z"/><path class="cls-2" d="M198.7,594.41v28.13a9.82,9.82,0,0,1-9.82,9.82H159.66a9.82,9.82,0,0,1-9.82-9.82V594.41A9.81,9.81,0,0,0,140,584.6H123.7a9.81,9.81,0,0,0-9.81,9.81v107.5a9.81,9.81,0,0,0,9.81,9.81H140a9.81,9.81,0,0,0,9.81-9.81V672a9.82,9.82,0,0,1,9.82-9.82h29.22A9.82,9.82,0,0,1,198.7,672v29.95a9.81,9.81,0,0,0,9.81,9.81h16.33a9.81,9.81,0,0,0,9.81-9.81V594.41a9.81,9.81,0,0,0-9.81-9.81H208.51A9.81,9.81,0,0,0,198.7,594.41Z"/><path class="cls-2" d="M307.84,713.36q-16.17,0-28.69-6.54a49.81,49.81,0,0,1-19.71-18.07,51.95,51.95,0,0,1,0-52.67A49.88,49.88,0,0,1,279.15,618q12.53-6.54,28.69-6.53T336.62,618a49.73,49.73,0,0,1,19.8,18.07,51.95,51.95,0,0,1,0,52.67,49.66,49.66,0,0,1-19.8,18.07Q324,713.36,307.84,713.36Zm0-27.43a20.25,20.25,0,0,0,10.44-2.72,19.77,19.77,0,0,0,7.45-8.08,27.28,27.28,0,0,0,2.81-12.81,26.06,26.06,0,0,0-2.81-12.71,20.31,20.31,0,0,0-35.78,0,26,26,0,0,0-2.81,12.71A27.16,27.16,0,0,0,290,675.13a19.77,19.77,0,0,0,7.45,8.08A20.25,20.25,0,0,0,307.84,685.93Z"/><path class="cls-2" d="M415.17,713.36a102.41,102.41,0,0,1-24.43-2.91,75.41,75.41,0,0,1-17.13-6.12,2.54,2.54,0,0,1-1.13-3.24l8.17-19a2.51,2.51,0,0,1,3.49-1.23,69.61,69.61,0,0,0,13.95,5.39,68.66,68.66,0,0,0,18.16,2.54q8.73,0,12.08-1.91t3.36-5.17q0-2.73-3.09-4.18a28,28,0,0,0-8.35-2.09Q415,674.86,408.9,674a97.44,97.44,0,0,1-12.44-2.54,45.68,45.68,0,0,1-11.53-4.82,22.72,22.72,0,0,1-8.26-8.53q-3.09-5.45-3.09-13.8a27.13,27.13,0,0,1,5.54-16.8q5.53-7.37,16.16-11.72t26.24-4.35a104.48,104.48,0,0,1,21,2.17,63.69,63.69,0,0,1,15.77,5.22,2.53,2.53,0,0,1,1.17,3.29l-8.28,18.9a2.53,2.53,0,0,1-3.51,1.21,43.94,43.94,0,0,0-12.15-4.46,69.52,69.52,0,0,0-13.62-1.46q-8.72,0-12.43,1.91c-2.49,1.27-3.73,2.88-3.73,4.81s1.09,3.43,3.27,4.45a31.6,31.6,0,0,0,8.35,2.37q5.09.81,11.36,1.63A97.16,97.16,0,0,1,441.13,654a41,41,0,0,1,11.26,4.81,24.88,24.88,0,0,1,8.27,8.54q3.16,5.35,3.17,13.89a26.29,26.29,0,0,1-5.44,16.16Q452.93,704.65,442,709T415.17,713.36Z"/><path class="cls-2" d="M539.4,687.11a3.22,3.22,0,0,0-4.26-1.91,19.19,19.19,0,0,1-7.56,1.46,10,10,0,0,1-7.54-2.91c-1.88-1.93-2.81-4.78-2.81-8.53V642.15a3.25,3.25,0,0,1,3.25-3.25h16a3.26,3.26,0,0,0,3.26-3.26V616.36a3.26,3.26,0,0,0-3.26-3.25h-16a3.25,3.25,0,0,1-3.25-3.26V594.39a3.25,3.25,0,0,0-3.26-3.25H486a3.25,3.25,0,0,0-3.26,3.25v15.46a3.26,3.26,0,0,1-3.25,3.26h-7.84a3.25,3.25,0,0,0-3.25,3.25v19.28a3.25,3.25,0,0,0,3.25,3.26h7.84a3.26,3.26,0,0,1,3.25,3.25v33.61q0,18.9,10.53,28.24t29.42,9.36A61.77,61.77,0,0,0,535.84,712a33.76,33.76,0,0,0,8.57-3,3.22,3.22,0,0,0,1.49-4Z"/><path d="M615,620.09c-.12,6.26-3.08,13.22-9,18.83a28.52,28.52,0,1,1-18.19-49.34C604,590.41,615.16,603.93,615,620.09Zm-3.66-2A24.87,24.87,0,1,0,586.43,643,24.88,24.88,0,0,0,611.34,618.12Z"/><path d="M594.43,621l.57-2.13c.77-3,1.55-5.93,2.32-8.9.13-.47.13-.48.63-.48h4.32c.4,0,.43,0,.43.42v16.42c0,.3-.09.4-.39.4-.82,0-1.64,0-2.47,0-.42,0-.42,0-.42-.44V613.64h0c-.16.61-.31,1.21-.46,1.81q-1.38,5.44-2.74,10.9a.44.44,0,0,1-.51.39c-.86,0-1.73,0-2.59,0a.41.41,0,0,1-.47-.37q-1.15-4.65-2.33-9.3c-.28-1.1-.55-2.2-.83-3.29,0,0,0-.11-.09-.14v12.56c0,.53,0,.53-.53.53-.79,0-1.58,0-2.38,0-.27,0-.38-.07-.38-.37q0-8.25,0-16.51c0-.27.09-.36.36-.36H591c.31,0,.39.16.46.42,1,3.62,1.92,7.25,2.88,10.88a1.59,1.59,0,0,0,.07.2Z"/><path d="M578.87,619.6v6.67c0,.45,0,.45-.45.45h-2.59c-.5,0-.5,0-.5-.49V613.05c0-.59,0-.59-.58-.59h-4.08c-.4,0-.41,0-.41-.42,0-.73,0-1.46,0-2.19,0-.26.09-.36.36-.36h13c.29,0,.38.1.37.38q0,1.11,0,2.22c0,.29-.1.38-.37.38h-4.29c-.41,0-.41,0-.41.42Z"/></g></g></svg>