<svg xmlns="http://www.w3.org/2000/svg" xmlns:xlink="http://www.w3.org/1999/xlink" viewBox="0 0 950 950"><defs><style>.cls-1{fill:url(#Degradado_sin_nombre_3);}.cls-2{fill:#332525;}.cls-3{fill:url(#Degradado_sin_nombre_34);}</style><linearGradient id="Degradado_sin_nombre_3" x1="144.73" y1="144.73" x2="799.95" y2="799.95" gradientUnits="userSpaceOnUse"><stop offset="0.18" stop-color="#f33"/><stop offset="0.18" stop-color="#cc1517"/></linearGradient><linearGradient id="Degradado_sin_nombre_34" x1="374.31" y1="340.16" x2="356.54" y2="322.38" gradientUnits="userSpaceOnUse"><stop offset="0" stop-color="#f6f6f6"/><stop offset="0" stop-color="#fff"/></linearGradient></defs><g id="Capa_2" data-name="Capa 2"><g id="Capa_1-2" data-name="Capa 1"><circle class="cls-1" cx="475" cy="475" r="463.31"/><path class="cls-2" d="M475,950A475.12,475.12,0,0,1,290.11,37.33,475.12,475.12,0,0,1,659.89,912.67,472,472,0,0,1,475,950Zm0-926.61C226,23.39,23.39,226,23.39,475S226,926.61,475,926.61,926.61,724,926.61,475,724,23.39,475,23.39Z"/><path d="M516.87,763.51c-41.26,0-81.51-6.6-117.61-20.18-56-19.8-102.22-56.13-133.61-105.08-29-45.28-44.27-98.84-44.07-154.89s15.78-109.23,45-154.13c31.67-48.58,78.08-84.5,134.22-103.87,54.23-19.61,117-25.34,176.68-16.12,64.76,10,119.74,36.26,159,75.94a34.44,34.44,0,0,1,10.06,25.08,33.64,33.64,0,0,1-11.18,24.4l-60.11,54.4a33.77,33.77,0,0,1-45.74-.05,153.26,153.26,0,0,0-39.77-27c-37.63-17.21-85.08-17.57-123.84-.93-22.24,9.55-51.48,28.9-64.49,66.83l-.12.34c-17.84,47.31-12,100.6,15.36,139.06,24.72,34.8,63,53.34,108,52.33,1.89-.13,4-.25,6.38-.38,16.54-.94,60.5-3.44,60.36-19.34V495.7a34.08,34.08,0,0,1,34.05-34.05h84.59a34.09,34.09,0,0,1,34.06,34.05V674.52a33.9,33.9,0,0,1-15.5,28.58C666.69,742.66,590.2,763.51,516.87,763.51Z"/><path class="cls-3" d="M583.06,581.08a21.93,21.93,0,0,1-14.55,20.8l-.15,0a192.15,192.15,0,0,1-63.19,10.66q-32.34,0-59.14-10.66a131.05,131.05,0,0,1-45.92-30.12,136.66,136.66,0,0,1-29.76-46.66Q359.69,498,359.7,465.64q0-33.08,10.65-60.25a136.94,136.94,0,0,1,29.76-46.66A126.85,126.85,0,0,1,446.4,329q27.17-10.28,60.24-10.28,37.49,0,68,14a164.2,164.2,0,0,1,42.82,29,22.26,22.26,0,0,0,30,0l60.12-54.39a22.45,22.45,0,0,0,.64-32.59q-33.09-32.9-78.81-52.24Q572,198.19,500,198.19q-63.19,0-115.35,19.47t-90.74,55.11a248.53,248.53,0,0,0-59.89,84.86q-21.31,49.23-21.3,108t21.3,108a250.6,250.6,0,0,0,59.52,84.87q38.19,35.64,89.64,55.11t113.15,19.47q55.83,0,113.52-16.9,51.23-15,92.33-41.63a22.33,22.33,0,0,0,10.16-18.77V477A22.37,22.37,0,0,0,690,454.61H605.42A22.37,22.37,0,0,0,583.06,477Z"/><path class="cls-2" d="M496.36,744.78c-42.36,0-81.82-6.81-117.29-20.23s-67-32.8-93.48-57.49a263.64,263.64,0,0,1-62.27-88.77c-14.77-34.11-22.27-72-22.27-112.65s7.5-78.53,22.27-112.66A261.3,261.3,0,0,1,286,264.18c26.72-24.69,58.55-44,94.59-57.48S456.72,186.5,500,186.5c49.36,0,94.4,8.46,133.87,25.17,31.72,13.42,59.48,31.83,82.51,54.72a34.5,34.5,0,0,1,10.13,25.14,33.67,33.67,0,0,1-11.18,24.41l-60.12,54.39a33.74,33.74,0,0,1-45.73-.05,153.21,153.21,0,0,0-39.77-27c-18.71-8.56-39.94-12.9-63.1-12.9-20.52,0-39.39,3.21-56.11,9.53a115.9,115.9,0,0,0-42.08,27,126,126,0,0,0-27.21,42.73c-6.54,16.67-9.85,35.51-9.85,56,0,20,3.31,38.59,9.84,55.24a126,126,0,0,0,27.22,42.73,120.11,120.11,0,0,0,41.89,27.45c16.41,6.53,34.86,9.83,54.83,9.83a181.38,181.38,0,0,0,59.38-10l.11,0a10.2,10.2,0,0,0,6.7-9.76V477a34.1,34.1,0,0,1,34.06-34.06H690A34.1,34.1,0,0,1,724.07,477V655.79a33.94,33.94,0,0,1-15.5,28.59c-28.22,18.27-60.32,32.75-95.41,43C573.8,738.93,534.5,744.78,496.36,744.78ZM500,209.88c-40.51,0-77.95,6.31-111.27,18.74s-62.41,30.12-86.89,52.74a237.91,237.91,0,0,0-57.08,80.91c-13.51,31.18-20.35,66-20.35,103.37s6.84,72.19,20.34,103.36a240.34,240.34,0,0,0,56.76,81c24.23,22.61,53.1,40.34,85.8,52.72s69.5,18.71,109,18.71c35.92,0,73-5.53,110.23-16.43,32.91-9.64,62.95-23.17,89.27-40.22a10.59,10.59,0,0,0,4.82-9V477A10.68,10.68,0,0,0,690,466.31H605.42A10.68,10.68,0,0,0,594.75,477v104.1a33.59,33.59,0,0,1-22.42,31.85l-.11.05a205.13,205.13,0,0,1-67.05,11.3c-22.94,0-44.3-3.86-63.46-11.48A143.28,143.28,0,0,1,391.76,580a148.91,148.91,0,0,1-32.3-50.58C351.86,510,348,488.57,348,465.64c0-23.42,3.86-45.12,11.46-64.52a149.3,149.3,0,0,1,32.3-50.58A138.94,138.94,0,0,1,442.25,318c19.37-7.33,41-11.05,64.39-11.05,26.54,0,51,5.06,72.83,15a176.9,176.9,0,0,1,45.89,31.07,10.6,10.6,0,0,0,14.19-.09l60.12-54.39a10.52,10.52,0,0,0,3.49-7.62,10.82,10.82,0,0,0-3.24-8c-20.9-20.78-46.18-37.53-75.13-49.77C588.21,217.73,546.24,209.88,500,209.88Z"/><path d="M883.53,857c-.12,6.25-3.07,13.22-9,18.83a28.52,28.52,0,1,1-18.19-49.34C872.56,827.3,883.69,840.82,883.53,857Zm-3.66-2A24.87,24.87,0,1,0,855,879.89,24.87,24.87,0,0,0,879.87,855Z"/><path d="M863,857.89c.19-.71.38-1.42.56-2.13l2.33-8.9c.12-.47.13-.48.63-.48h4.32c.4,0,.42,0,.42.42,0,5.48,0,11,0,16.42,0,.29-.09.4-.39.4-.82,0-1.65,0-2.47,0-.42,0-.42,0-.43-.44V850.53h-.05c-.15.61-.31,1.21-.46,1.81-.91,3.63-1.83,7.26-2.73,10.9a.45.45,0,0,1-.51.39c-.87,0-1.73,0-2.6,0a.4.4,0,0,1-.46-.37c-.77-3.1-1.56-6.2-2.34-9.3-.27-1.1-.55-2.2-.82-3.29,0,0,0-.11-.09-.14v12.56c0,.53,0,.53-.53.53-.8,0-1.59,0-2.38,0-.27,0-.38-.08-.38-.37V846.74c0-.27.09-.36.36-.36h4.53c.32,0,.4.16.46.41q1.44,5.44,2.89,10.89l.06.2Z"/><path d="M847.4,856.49v6.67c0,.45,0,.45-.44.45h-2.59c-.5,0-.5,0-.5-.49V849.94c0-.59,0-.59-.59-.59h-4.07c-.4,0-.42,0-.42-.42,0-.73,0-1.46,0-2.19,0-.26.09-.36.36-.36h13c.29,0,.37.1.37.38q0,1.11,0,2.22c0,.29-.1.38-.38.37h-4.29c-.41,0-.41,0-.41.42Z"/></g></g></svg>