<svg xmlns="http://www.w3.org/2000/svg" viewBox="0 0 907.97 177.02"><defs><style>.cls-1{fill:#cc1517;}.cls-2{fill:#332525;}</style></defs><g id="Capa_2" data-name="Capa 2"><g id="Capa_1-2" data-name="Capa 1"><path class="cls-1" d="M118,128.58a7,7,0,0,1-4.63,6.63l0,0a61.41,61.41,0,0,1-20.14,3.39,50.7,50.7,0,0,1-18.85-3.39,41.91,41.91,0,0,1-14.63-9.61,43.6,43.6,0,0,1-9.48-14.86,51.44,51.44,0,0,1-3.4-19,52.07,52.07,0,0,1,3.4-19.2,43.64,43.64,0,0,1,9.48-14.87,40.21,40.21,0,0,1,14.75-9.48A53.77,53.77,0,0,1,93.66,45a51.38,51.38,0,0,1,21.66,4.45A52.37,52.37,0,0,1,129,58.66a7.09,7.09,0,0,0,9.55,0l19.16-17.33a7.16,7.16,0,0,0,.2-10.39,78.67,78.67,0,0,0-25.11-16.65Q114.5,6.56,91.55,6.56a104.56,104.56,0,0,0-36.76,6.2A87,87,0,0,0,25.87,30.32,79.4,79.4,0,0,0,6.79,57.37,85.68,85.68,0,0,0,0,91.79a85.68,85.68,0,0,0,6.79,34.42,80,80,0,0,0,19,27.05,86.09,86.09,0,0,0,28.56,17.56A101.26,101.26,0,0,0,90.38,177a128.27,128.27,0,0,0,36.18-5.38A111.19,111.19,0,0,0,156,158.37a7.14,7.14,0,0,0,3.24-6v-57a7.13,7.13,0,0,0-7.13-7.12h-27A7.13,7.13,0,0,0,118,95.4Z"/><path class="cls-1" d="M317.18,46.6H278a2.68,2.68,0,0,0-2.68,2.67v58.91q0,10.3-3,17a20.21,20.21,0,0,1-8.55,9.71,24.51,24.51,0,0,1-12.06,3q-10.07,0-15.57-6.44t-5.5-21.19v-61A2.68,2.68,0,0,0,228,46.6H188.83a2.68,2.68,0,0,0-2.68,2.67v68.28q0,20.13,6.91,33.13a43.13,43.13,0,0,0,19.2,19.08c8.19,4.06,36.32,5.74,46.62,5.74l58.37-1.68a2.68,2.68,0,0,0,2.6-2.68V49.27A2.68,2.68,0,0,0,317.18,46.6Z"/><rect class="cls-1" x="348.65" y="46.6" width="44.49" height="127.15" rx="2.68"/><path class="cls-2" d="M554.13,0H515a2.68,2.68,0,0,0-2.68,2.68v55a39.28,39.28,0,0,0-7.49-6.07q-11.47-7.14-27.63-7.14a62.59,62.59,0,0,0-31.38,8.08,59,59,0,0,0-22.59,22.71q-8.33,14.64-8.32,35,0,20.13,8.32,34.77a59,59,0,0,0,22.59,22.71,62.59,62.59,0,0,0,31.38,8.08c8.48,0,26.73-.34,38.63-2.45a2.63,2.63,0,0,0,1.28.34h37a2.68,2.68,0,0,0,2.68-2.67V2.68A2.68,2.68,0,0,0,554.13,0ZM509.51,126.56A24.63,24.63,0,0,1,500,137a26.06,26.06,0,0,1-13.46,3.51,26.5,26.5,0,0,1-13.7-3.51,24.71,24.71,0,0,1-9.49-10.42,35.48,35.48,0,0,1-3.51-16.27q0-10.07,3.51-16.63a25.29,25.29,0,0,1,9.49-10.07,26.5,26.5,0,0,1,13.7-3.51A26.06,26.06,0,0,1,500,83.59a25.2,25.2,0,0,1,9.48,10.07q3.51,6.56,3.51,16.63A35.48,35.48,0,0,1,509.51,126.56Z"/><path class="cls-2" d="M705.55,74.81A62.18,62.18,0,0,0,681,52.33a73.82,73.82,0,0,0-34.07-7.84q-20.14,0-35.94,8.43a63.19,63.19,0,0,0-24.82,23.3q-9,14.86-9,34.07a62.25,62.25,0,0,0,9.25,33.6,64.18,64.18,0,0,0,26,23.41q16.74,8.55,39.46,8.55,18,0,31.38-5.27a59,59,0,0,0,20.45-13.21,2.7,2.7,0,0,0,.05-3.74L684,132.71a2.65,2.65,0,0,0-3.59-.26,47.09,47.09,0,0,1-11.23,6.76A42.79,42.79,0,0,1,653,141.9a38.37,38.37,0,0,1-17.33-3.63,25.67,25.67,0,0,1-11.12-10.42,27.79,27.79,0,0,1-2.59-6.32h89.7a2.68,2.68,0,0,0,2.67-2.45c.08-1,.17-2.07.25-3.17.16-2,.24-3.83.24-5.39Q714.8,89.45,705.55,74.81Zm-72.47,5a28,28,0,0,1,14.28-3.52,26.39,26.39,0,0,1,13.82,3.52,24.77,24.77,0,0,1,9.24,10,27.28,27.28,0,0,1,2.75,8.31H621.22a29.92,29.92,0,0,1,2.61-8.31A22.84,22.84,0,0,1,633.08,79.85Z"/><polygon class="cls-2" points="824.69 46.6 792.66 124.53 762.17 46.6 716.51 46.6 768.72 173.74 814.85 173.74 866.83 46.6 824.69 46.6"/><path d="M908,149.24c-.12,6.26-3.07,13.22-9,18.83a27.47,27.47,0,0,1-19.59,7.76,27.8,27.8,0,0,1-20.9-9.24,28.47,28.47,0,0,1,2.12-40.71,27.42,27.42,0,0,1,20.19-7.14C897,119.56,908.13,133.08,908,149.24Zm-3.66-2a24.87,24.87,0,1,0-24.91,24.89A24.88,24.88,0,0,0,904.31,147.27Z"/><path d="M887.41,150.16c.18-.71.37-1.43.56-2.14.78-3,1.55-5.93,2.32-8.89.13-.48.13-.48.63-.48h4.33c.39,0,.42,0,.42.42q0,8.2,0,16.42c0,.29-.1.4-.39.39h-2.47c-.42,0-.43,0-.43-.44V142.79h0c-.16.6-.31,1.2-.46,1.81q-1.38,5.44-2.74,10.89a.42.42,0,0,1-.51.39H886a.41.41,0,0,1-.47-.36q-1.16-4.67-2.33-9.31l-.83-3.29a.15.15,0,0,0-.09-.14v12.57c0,.53,0,.53-.53.53h-2.37c-.27,0-.39-.07-.39-.37q0-8.25,0-16.51c0-.26.09-.36.36-.36,1.51,0,3,0,4.54,0,.32,0,.39.17.46.42l2.88,10.88c0,.07.05.14.07.21Z"/><path d="M871.84,148.76v6.66c0,.45,0,.46-.44.46h-2.6c-.49,0-.5,0-.5-.5V142.2c0-.58,0-.58-.58-.58h-4.07c-.4,0-.42,0-.42-.42,0-.73,0-1.46,0-2.19,0-.27.09-.37.36-.37q6.48,0,13,0c.28,0,.37.11.36.38,0,.75,0,1.49,0,2.23,0,.28-.09.37-.37.37h-4.29c-.41,0-.41,0-.41.41Z"/></g></g></svg>